<?xml version="1.0" encoding="UTF-8"?>
<svg id="Layer_1" data-name="Layer 1" xmlns="http://www.w3.org/2000/svg" viewBox="0 0 24.53 24.63">
  <defs>
    <style>
      .cls-1 {
        stroke-width: 0px;
      }
    </style>
  </defs>
  <path class="cls-1" d="m24.35,23.56l-7.88-7.88c1.48-1.67,2.39-3.85,2.39-6.25C18.86,4.23,14.63,0,9.43,0S0,4.23,0,9.43s4.23,9.43,9.43,9.43c2.35,0,4.49-.87,6.15-2.29l7.89,7.89c.12.12.28.18.44.18s.32-.06.44-.18c.24-.24.24-.64,0-.88ZM1.25,9.43C1.25,4.92,4.92,1.25,9.43,1.25s8.18,3.67,8.18,8.18-3.67,8.18-8.18,8.18S1.25,13.94,1.25,9.43Z"/>
</svg>