<?xml version="1.0" encoding="UTF-8"?>
<svg id="Layer_1" data-name="Layer 1" xmlns="http://www.w3.org/2000/svg" viewBox="0 0 24.35 18.47">
  <defs>
    <style>
      .cls-1 {
        stroke-width: 0px;
      }
    </style>
  </defs>
  <path class="cls-1" d="m12.17,11.18c-.73,0-1.3.38-1.3.87s.57.88,1.3.88,1.3-.38,1.3-.88-.57-.87-1.3-.87Zm0,1.25c-.49,0-.8-.22-.8-.38s.31-.37.8-.37.8.22.8.37-.31.38-.8.38Z"/>
  <path class="cls-1" d="m23.83,6.63s.06-.03.09-.04c.32-.22.65-.79.23-1.45-.37-.58-1.4-.83-2.35-1.02-.11-.02-.2-.04-.25-.05-.4-.1-.71.13-.87.45-.54-1.16-1.51-2.93-2.8-3.94-.79-.44-4.3-.58-5.49-.58h-.46c-1.19,0-4.7.14-5.57.63-1.22.97-2.17,2.71-2.71,3.87-.16-.31-.46-.53-.86-.43-.06.01-.15.03-.25.05-.94.19-1.98.43-2.34,1.02-.42.66-.09,1.23.23,1.45.03.02.06.03.09.04l.81.29C.19,7.93.13,9.44.13,9.52v3.25c0,.36.02.67.06.96v3.51c0,.77.67,1.21,1.32,1.23h3.1c.63-.02,1.3-.46,1.3-1.23v-.8c2.65.06,5.71.07,6.25.07h0c.54,0,3.58-.02,6.22-.07v.78c0,.77.67,1.21,1.32,1.23h3.1c.63-.02,1.3-.46,1.3-1.23v-3.33c.05-.33.09-.7.09-1.13v-3.26c0-.06-.05-1.58-1.19-2.59l.82-.29Zm-2.5-1.13v-.62s.03-.07.03-.07c.07.02.17.04.29.06.4.08,1.63.32,1.86.68.11.17.11.31,0,.4l-1.21.43c-.34-.26-.72-.54-1-.74l.02-.13Zm1.58,3.73c-2.32,1.74-4.61,2.62-5.33,2.81-.14.04-.38.05-.63.05,1.05-1.11,3.37-3.44,5-4.42.09.07.17.14.21.17.49.43.67,1.03.74,1.38ZM7.09,1.66c.48-.18,2.85-.41,4.85-.41h.46c2,0,4.37.23,4.85.41,1.19.97,2.12,2.94,2.53,3.89-3.38-.27-6.93-.28-7.61-.27-.68,0-4.23,0-7.61.27.4-.95,1.34-2.91,2.53-3.89Zm-2.97,4.72c.1-.07.18-.18.22-.29,0,0,0-.01,0-.02,3.26-.27,6.75-.29,7.69-.29,0,0,.01,0,.02,0h.23s.01,0,.02,0c.94,0,4.43.02,7.69.29,0,0,0,.01,0,.02.04.12.12.22.22.29.31.22.72.53,1.1.8-.9.59-1.92,1.47-2.85,2.34-.82.15-3.59.26-6.13.29h-.33c-2.53-.03-5.29-.14-6.12-.28-.93-.87-1.95-1.76-2.85-2.35.37-.27.78-.58,1.09-.8Zm3.27,5.71c-.25,0-.49-.01-.63-.05-.72-.19-3.01-1.07-5.34-2.82.07-.36.26-.96.75-1.38.04-.04.12-.1.21-.17,1.63.98,3.95,3.32,5.01,4.42ZM.83,5.94c-.1-.1-.1-.24,0-.41.23-.36,1.45-.6,1.86-.68.12-.02.23-.04.27-.07.02.01.04.05.05.08v.69s.02.06.02.06c-.28.2-.67.49-1.01.74l-1.2-.42Zm4.09,11.3c0,.21-.33.23-.32.23H1.53s-.34-.02-.34-.23v-1.37c.28.22.58.34.86.39.41.07,1.52.12,2.86.16v.82Zm.65-3.76c-.09.04-.14.13-.14.23v1.48c-1.51-.04-2.76-.09-3.15-.15-.73-.13-.89-1.3-.89-2.26v-2.65c2.76,1.97,5.16,2.63,5.19,2.64.11.03.25.05.39.06l-1.4.66Zm12.87,1.71c-2.24.05-4.9.07-6.26.07-1.36,0-4.02-.03-6.25-.07v-1.33l2.23-1.06c.05,0,.1,0,.11,0,.11-.01.2-.08.27-.17h.02s0-.02,0-.02c.01-.02.03-.03.04-.05.05-.13.02-.28-.07-.39-.07-.08-.92-1.01-2.03-2.09,1.69.16,4.76.21,5.52.21h.34c.76,0,3.85-.05,5.53-.22-1.11,1.08-1.95,2.01-2.03,2.09-.1.11-.12.26-.07.39,0,.02.03.03.04.05h0s.02.02.02.02c.06.09.15.16.27.17.02,0,.06,0,.11,0l2.23,1.06v1.33Zm.36-1.71l-1.4-.66c.14-.01.28-.03.39-.06.03,0,2.42-.67,5.18-2.63v2.64c0,.96-.15,2.13-.89,2.26-.39.07-1.63.12-3.13.15v-1.48c0-.1-.06-.18-.14-.23Zm4.33,2.41v1.33c0,.21-.33.23-.32.23h-3.07s-.33-.02-.33-.23v-.81c1.35-.04,2.48-.09,2.89-.16.28-.05.56-.16.83-.37Z"/>
</svg>