<?xml version="1.0" encoding="UTF-8"?>
<svg id="Layer_1" data-name="Layer 1" xmlns="http://www.w3.org/2000/svg" viewBox="0 0 24.26 24.29">
  <defs>
    <style>
      .cls-1 {
        stroke-width: 0px;
      }
    </style>
  </defs>
  <path class="cls-1" d="m24.26.63c0-.17-.07-.33-.18-.44-.12-.12-.28-.18-.44-.18h0l-8.38.06h0c-.62,0-2.19.12-3.35,1.28L1.01,12.23c-1.35,1.35-1.35,3.54,0,4.89l6.16,6.16c.65.65,1.52,1.01,2.44,1.01s1.79-.36,2.45-1.01l10.89-10.89c.58-.58,1.28-1.64,1.28-3.34h-.62s.62,0,.62,0l.03-8.41Zm-1.28,8.4h0c0,1.04-.31,1.87-.91,2.47l-10.89,10.89c-.83.84-2.29.84-3.12,0l-6.16-6.16c-.86-.86-.86-2.26,0-3.12L12.79,2.22c.82-.82,1.99-.91,2.47-.91h0l7.75-.05-.03,7.78Z"/>
  <path class="cls-1" d="m17.67,8.74c.54,0,1.08-.21,1.5-.62h0c.83-.83.83-2.17,0-3-.83-.83-2.17-.83-3,0-.83.83-.83,2.17,0,3,.41.41.96.62,1.5.62Zm-.97-3.09c.27-.27.62-.4.97-.4s.7.13.97.4c.53.53.53,1.4,0,1.94-.53.53-1.4.53-1.94,0-.53-.53-.53-1.4,0-1.94Z"/>
</svg>