<?xml version="1.0" encoding="UTF-8"?>
<svg id="Layer_1" data-name="Layer 1" xmlns="http://www.w3.org/2000/svg" viewBox="0 0 18.36 24.06">
  <defs>
    <style>
      .cls-1 {
        stroke-width: 0px;
      }
    </style>
  </defs>
  <path class="cls-1" d="m9.18,0C4.12,0,0,4.12,0,9.18s8.36,14.28,8.72,14.68c.12.13.29.21.47.21s.35-.08.47-.21c.36-.4,8.72-9.77,8.72-14.68S14.24,0,9.18,0Zm0,22.49c-1.76-2.05-7.93-9.49-7.93-13.31C1.25,4.81,4.81,1.25,9.18,1.25s7.93,3.56,7.93,7.93c0,3.82-6.17,11.26-7.93,13.31Z"/>
  <path class="cls-1" d="m9.18,5c-2.04,0-3.7,1.66-3.7,3.7s1.66,3.7,3.7,3.7,3.7-1.66,3.7-3.7-1.66-3.7-3.7-3.7Zm0,6.65c-1.63,0-2.95-1.32-2.95-2.95s1.32-2.95,2.95-2.95,2.95,1.32,2.95,2.95-1.32,2.95-2.95,2.95Z"/>
</svg>